<svg xmlns="http://www.w3.org/2000/svg" xmlns:xlink="http://www.w3.org/1999/xlink" width="500" zoomAndPan="magnify" viewBox="0 0 375 374.999991" height="500" preserveAspectRatio="xMidYMid meet" version="1.2">
    <defs/>
    <g id="22dc91a2d0">
        <path style=" stroke:none;fill-rule:evenodd;fill:#013ca4;fill-opacity:1;" d="M 186.097656 45.496094 C 199.925781 37.542969 217.613281 42.265625 225.582031 56.066406 L 283.367188 155.953125 C 291.386719 169.753906 286.605469 187.402344 272.828125 195.355469 C 259 203.304688 241.3125 198.585938 233.34375 184.785156 L 175.558594 84.898438 C 167.539062 71.097656 172.269531 53.5 186.097656 45.496094 Z M 186.097656 45.496094 "/>
        <path style=" stroke:none;fill-rule:evenodd;fill:#0175e4;fill-opacity:1;" d="M 189.386719 195.355469 C 175.558594 203.304688 157.875 198.585938 149.90625 184.785156 L 92.117188 84.898438 C 84.148438 71.097656 88.878906 53.5 102.710938 45.496094 C 116.488281 37.542969 134.171875 42.265625 142.140625 56.066406 L 199.980469 155.953125 C 207.945312 169.753906 203.21875 187.402344 189.386719 195.355469 Z M 189.386719 195.355469 "/>
        <path style=" stroke:none;fill-rule:evenodd;fill:#73b7ff;fill-opacity:1;" d="M 269.539062 45.496094 C 283.367188 37.542969 301.050781 42.265625 309.019531 56.066406 C 316.988281 69.863281 312.257812 87.511719 298.429688 95.464844 C 284.601562 103.417969 266.914062 98.699219 258.945312 84.898438 C 250.976562 71.097656 255.707031 53.5 269.539062 45.496094 Z M 105.949219 195.355469 C 92.117188 203.304688 74.484375 198.585938 66.464844 184.785156 C 58.496094 171.035156 63.226562 153.386719 77.054688 145.433594 C 90.886719 137.433594 108.570312 142.203125 116.539062 155.953125 C 124.507812 169.753906 119.777344 187.402344 105.949219 195.355469 Z M 105.949219 195.355469 "/>
        <g style="fill:#031638;fill-opacity:1;">
            <g transform="translate(101.885215, 264.620235)">
                <path style="stroke:none" d="M 24.171875 -17.875 C 26.191406 -17.4375 27.8125 -16.429688 29.03125 -14.859375 C 30.257812 -13.296875 30.875 -11.503906 30.875 -9.484375 C 30.875 -6.566406 29.851562 -4.253906 27.8125 -2.546875 C 25.78125 -0.847656 22.945312 0 19.3125 0 L 3.078125 0 L 3.078125 -34.84375 L 18.765625 -34.84375 C 22.304688 -34.84375 25.078125 -34.03125 27.078125 -32.40625 C 29.078125 -30.789062 30.078125 -28.59375 30.078125 -25.8125 C 30.078125 -23.757812 29.539062 -22.054688 28.46875 -20.703125 C 27.394531 -19.347656 25.960938 -18.40625 24.171875 -17.875 Z M 11.5625 -20.75 L 17.125 -20.75 C 18.507812 -20.75 19.570312 -21.054688 20.3125 -21.671875 C 21.0625 -22.285156 21.4375 -23.1875 21.4375 -24.375 C 21.4375 -25.5625 21.0625 -26.46875 20.3125 -27.09375 C 19.570312 -27.726562 18.507812 -28.046875 17.125 -28.046875 L 11.5625 -28.046875 Z M 17.828125 -6.84375 C 19.242188 -6.84375 20.335938 -7.164062 21.109375 -7.8125 C 21.890625 -8.457031 22.28125 -9.394531 22.28125 -10.625 C 22.28125 -11.84375 21.875 -12.800781 21.0625 -13.5 C 20.257812 -14.195312 19.144531 -14.546875 17.71875 -14.546875 L 11.5625 -14.546875 L 11.5625 -6.84375 Z M 17.828125 -6.84375 "/>
            </g>
        </g>
        <g style="fill:#031638;fill-opacity:1;">
            <g transform="translate(134.594479, 264.620235)">
                <path style="stroke:none" d="M 11.5625 -34.84375 L 11.5625 0 L 3.078125 0 L 3.078125 -34.84375 Z M 11.5625 -34.84375 "/>
            </g>
        </g>
        <g style="fill:#031638;fill-opacity:1;">
            <g transform="translate(149.236714, 264.620235)">
                <path style="stroke:none" d="M 11.5625 -6.546875 L 22.6875 -6.546875 L 22.6875 0 L 3.078125 0 L 3.078125 -34.84375 L 11.5625 -34.84375 Z M 11.5625 -6.546875 "/>
            </g>
        </g>
        <g style="fill:#031638;fill-opacity:1;">
            <g transform="translate(172.912464, 264.620235)">
                <path style="stroke:none" d="M 11.5625 -6.546875 L 22.6875 -6.546875 L 22.6875 0 L 3.078125 0 L 3.078125 -34.84375 L 11.5625 -34.84375 Z M 11.5625 -6.546875 "/>
            </g>
        </g>
        <g style="fill:#031638;fill-opacity:1;">
            <g transform="translate(196.588213, 264.620235)">
                <path style="stroke:none" d=""/>
            </g>
        </g>
        <g style="fill:#031638;fill-opacity:1;">
            <g transform="translate(207.110764, 264.620235)">
                <path style="stroke:none" d="M 11.421875 -34.84375 L 11.421875 -14 C 11.421875 -11.914062 11.929688 -10.3125 12.953125 -9.1875 C 13.984375 -8.0625 15.488281 -7.5 17.46875 -7.5 C 19.457031 -7.5 20.976562 -8.0625 22.03125 -9.1875 C 23.09375 -10.3125 23.625 -11.914062 23.625 -14 L 23.625 -34.84375 L 32.125 -34.84375 L 32.125 -14.046875 C 32.125 -10.929688 31.457031 -8.296875 30.125 -6.140625 C 28.800781 -3.992188 27.019531 -2.375 24.78125 -1.28125 C 22.550781 -0.195312 20.066406 0.34375 17.328125 0.34375 C 14.578125 0.34375 12.117188 -0.191406 9.953125 -1.265625 C 7.785156 -2.335938 6.070312 -3.957031 4.8125 -6.125 C 3.550781 -8.289062 2.921875 -10.929688 2.921875 -14.046875 L 2.921875 -34.84375 Z M 11.421875 -34.84375 "/>
            </g>
        </g>
        <g style="fill:#031638;fill-opacity:1;">
            <g transform="translate(242.103208, 264.620235)">
                <path style="stroke:none" d="M 29.640625 -23.625 C 29.640625 -21.601562 29.175781 -19.757812 28.25 -18.09375 C 27.320312 -16.425781 25.894531 -15.078125 23.96875 -14.046875 C 22.050781 -13.023438 19.671875 -12.515625 16.828125 -12.515625 L 11.5625 -12.515625 L 11.5625 0 L 3.078125 0 L 3.078125 -34.84375 L 16.828125 -34.84375 C 19.609375 -34.84375 21.957031 -34.363281 23.875 -33.40625 C 25.789062 -32.445312 27.226562 -31.125 28.1875 -29.4375 C 29.15625 -27.75 29.640625 -25.8125 29.640625 -23.625 Z M 16.1875 -19.265625 C 17.800781 -19.265625 19.003906 -19.644531 19.796875 -20.40625 C 20.597656 -21.164062 21 -22.238281 21 -23.625 C 21 -25.019531 20.597656 -26.097656 19.796875 -26.859375 C 19.003906 -27.617188 17.800781 -28 16.1875 -28 L 11.5625 -28 L 11.5625 -19.265625 Z M 16.1875 -19.265625 "/>
            </g>
        </g>
        <g style="fill:#031638;fill-opacity:1;">
            <g transform="translate(23.331384, 318.866698)">
                <path style="stroke:none" d="M 15.453125 -14.03125 C 15.453125 -12.375 14.882812 -11 13.75 -9.90625 C 12.625 -8.820312 10.90625 -8.28125 8.59375 -8.28125 L 4.78125 -8.28125 L 4.78125 0 L 2.1875 0 L 2.1875 -19.828125 L 8.59375 -19.828125 C 10.832031 -19.828125 12.535156 -19.285156 13.703125 -18.203125 C 14.867188 -17.128906 15.453125 -15.738281 15.453125 -14.03125 Z M 8.59375 -10.40625 C 10.03125 -10.40625 11.085938 -10.71875 11.765625 -11.34375 C 12.453125 -11.976562 12.796875 -12.875 12.796875 -14.03125 C 12.796875 -16.476562 11.394531 -17.703125 8.59375 -17.703125 L 4.78125 -17.703125 L 4.78125 -10.40625 Z M 8.59375 -10.40625 "/>
            </g>
        </g>
        <g style="fill:#031638;fill-opacity:1;">
            <g transform="translate(50.82445, 318.866698)">
                <path style="stroke:none" d="M 4.78125 -2.109375 L 11.71875 -2.109375 L 11.71875 0 L 2.1875 0 L 2.1875 -19.828125 L 4.78125 -19.828125 Z M 4.78125 -2.109375 "/>
            </g>
        </g>
        <g style="fill:#031638;fill-opacity:1;">
            <g transform="translate(74.134605, 318.866698)">
                <path style="stroke:none" d="M 13.90625 -4.40625 L 5.265625 -4.40625 L 3.671875 0 L 0.9375 0 L 8.109375 -19.71875 L 11.09375 -19.71875 L 18.234375 0 L 15.5 0 Z M 13.171875 -6.515625 L 9.59375 -16.53125 L 6 -6.515625 Z M 13.171875 -6.515625 "/>
            </g>
        </g>
        <g style="fill:#031638;fill-opacity:1;">
            <g transform="translate(104.330936, 318.866698)">
                <path style="stroke:none" d="M 16.078125 -19.828125 L 9.609375 -7.484375 L 9.609375 0 L 7.03125 0 L 7.03125 -7.484375 L 0.546875 -19.828125 L 3.421875 -19.828125 L 8.3125 -9.78125 L 13.203125 -19.828125 Z M 16.078125 -19.828125 "/>
            </g>
        </g>
        <g style="fill:#031638;fill-opacity:1;">
            <g transform="translate(131.966293, 318.866698)">
                <path style="stroke:none" d=""/>
            </g>
        </g>
        <g style="fill:#031638;fill-opacity:1;">
            <g transform="translate(150.581306, 318.866698)">
                <path style="stroke:none" d="M 14.390625 -19.828125 L 14.390625 -17.71875 L 8.984375 -17.71875 L 8.984375 0 L 6.40625 0 L 6.40625 -17.71875 L 0.96875 -17.71875 L 0.96875 -19.828125 Z M 14.390625 -19.828125 "/>
            </g>
        </g>
        <g style="fill:#031638;fill-opacity:1;">
            <g transform="translate(176.993088, 318.866698)">
                <path style="stroke:none" d="M 11.1875 0.203125 C 9.34375 0.203125 7.660156 -0.226562 6.140625 -1.09375 C 4.628906 -1.957031 3.429688 -3.160156 2.546875 -4.703125 C 1.660156 -6.253906 1.21875 -8 1.21875 -9.9375 C 1.21875 -11.863281 1.660156 -13.597656 2.546875 -15.140625 C 3.429688 -16.691406 4.628906 -17.898438 6.140625 -18.765625 C 7.660156 -19.628906 9.34375 -20.0625 11.1875 -20.0625 C 13.039062 -20.0625 14.722656 -19.628906 16.234375 -18.765625 C 17.753906 -17.898438 18.953125 -16.695312 19.828125 -15.15625 C 20.703125 -13.625 21.140625 -11.882812 21.140625 -9.9375 C 21.140625 -7.976562 20.703125 -6.226562 19.828125 -4.6875 C 18.953125 -3.15625 17.753906 -1.957031 16.234375 -1.09375 C 14.722656 -0.226562 13.039062 0.203125 11.1875 0.203125 Z M 11.1875 -2.046875 C 12.570312 -2.046875 13.816406 -2.367188 14.921875 -3.015625 C 16.035156 -3.660156 16.910156 -4.578125 17.546875 -5.765625 C 18.179688 -6.960938 18.5 -8.351562 18.5 -9.9375 C 18.5 -11.519531 18.179688 -12.90625 17.546875 -14.09375 C 16.910156 -15.28125 16.039062 -16.195312 14.9375 -16.84375 C 13.832031 -17.488281 12.582031 -17.8125 11.1875 -17.8125 C 9.78125 -17.8125 8.523438 -17.488281 7.421875 -16.84375 C 6.328125 -16.195312 5.460938 -15.28125 4.828125 -14.09375 C 4.191406 -12.90625 3.875 -11.519531 3.875 -9.9375 C 3.875 -8.351562 4.191406 -6.960938 4.828125 -5.765625 C 5.460938 -4.578125 6.332031 -3.660156 7.4375 -3.015625 C 8.550781 -2.367188 9.800781 -2.046875 11.1875 -2.046875 Z M 11.1875 -2.046875 "/>
            </g>
        </g>
        <g style="fill:#031638;fill-opacity:1;">
            <g transform="translate(210.376402, 318.866698)">
                <path style="stroke:none" d=""/>
            </g>
        </g>
        <g style="fill:#031638;fill-opacity:1;">
            <g transform="translate(228.991415, 318.866698)">
                <path style="stroke:none" d="M 17.21875 -14.078125 C 16.664062 -15.234375 15.867188 -16.128906 14.828125 -16.765625 C 13.785156 -17.398438 12.570312 -17.71875 11.1875 -17.71875 C 9.800781 -17.71875 8.550781 -17.398438 7.4375 -16.765625 C 6.332031 -16.128906 5.460938 -15.21875 4.828125 -14.03125 C 4.191406 -12.851562 3.875 -11.488281 3.875 -9.9375 C 3.875 -8.375 4.191406 -7.003906 4.828125 -5.828125 C 5.460938 -4.648438 6.332031 -3.742188 7.4375 -3.109375 C 8.550781 -2.472656 9.800781 -2.15625 11.1875 -2.15625 C 13.113281 -2.15625 14.703125 -2.734375 15.953125 -3.890625 C 17.210938 -5.054688 17.945312 -6.625 18.15625 -8.59375 L 10.25 -8.59375 L 10.25 -10.703125 L 20.90625 -10.703125 L 20.90625 -8.703125 C 20.757812 -7.078125 20.25 -5.582031 19.375 -4.21875 C 18.5 -2.863281 17.347656 -1.789062 15.921875 -1 C 14.503906 -0.21875 12.925781 0.171875 11.1875 0.171875 C 9.34375 0.171875 7.660156 -0.257812 6.140625 -1.125 C 4.628906 -1.988281 3.429688 -3.1875 2.546875 -4.71875 C 1.660156 -6.257812 1.21875 -8 1.21875 -9.9375 C 1.21875 -11.863281 1.660156 -13.597656 2.546875 -15.140625 C 3.429688 -16.691406 4.628906 -17.898438 6.140625 -18.765625 C 7.660156 -19.628906 9.34375 -20.0625 11.1875 -20.0625 C 13.289062 -20.0625 15.148438 -19.535156 16.765625 -18.484375 C 18.390625 -17.441406 19.570312 -15.972656 20.3125 -14.078125 Z M 17.21875 -14.078125 "/>
            </g>
        </g>
        <g style="fill:#031638;fill-opacity:1;">
            <g transform="translate(262.147104, 318.866698)">
                <path style="stroke:none" d="M 12.640625 0 L 7.90625 -8.109375 L 4.78125 -8.109375 L 4.78125 0 L 2.1875 0 L 2.1875 -19.828125 L 8.59375 -19.828125 C 10.09375 -19.828125 11.359375 -19.570312 12.390625 -19.0625 C 13.421875 -18.550781 14.191406 -17.859375 14.703125 -16.984375 C 15.222656 -16.109375 15.484375 -15.113281 15.484375 -14 C 15.484375 -12.632812 15.085938 -11.429688 14.296875 -10.390625 C 13.503906 -9.347656 12.320312 -8.65625 10.75 -8.3125 L 15.734375 0 Z M 4.78125 -10.1875 L 8.59375 -10.1875 C 10 -10.1875 11.050781 -10.53125 11.75 -11.21875 C 12.445312 -11.914062 12.796875 -12.84375 12.796875 -14 C 12.796875 -15.175781 12.453125 -16.085938 11.765625 -16.734375 C 11.078125 -17.378906 10.019531 -17.703125 8.59375 -17.703125 L 4.78125 -17.703125 Z M 4.78125 -10.1875 "/>
            </g>
        </g>
        <g style="fill:#031638;fill-opacity:1;">
            <g transform="translate(290.465383, 318.866698)">
                <path style="stroke:none" d="M 11.1875 0.203125 C 9.34375 0.203125 7.660156 -0.226562 6.140625 -1.09375 C 4.628906 -1.957031 3.429688 -3.160156 2.546875 -4.703125 C 1.660156 -6.253906 1.21875 -8 1.21875 -9.9375 C 1.21875 -11.863281 1.660156 -13.597656 2.546875 -15.140625 C 3.429688 -16.691406 4.628906 -17.898438 6.140625 -18.765625 C 7.660156 -19.628906 9.34375 -20.0625 11.1875 -20.0625 C 13.039062 -20.0625 14.722656 -19.628906 16.234375 -18.765625 C 17.753906 -17.898438 18.953125 -16.695312 19.828125 -15.15625 C 20.703125 -13.625 21.140625 -11.882812 21.140625 -9.9375 C 21.140625 -7.976562 20.703125 -6.226562 19.828125 -4.6875 C 18.953125 -3.15625 17.753906 -1.957031 16.234375 -1.09375 C 14.722656 -0.226562 13.039062 0.203125 11.1875 0.203125 Z M 11.1875 -2.046875 C 12.570312 -2.046875 13.816406 -2.367188 14.921875 -3.015625 C 16.035156 -3.660156 16.910156 -4.578125 17.546875 -5.765625 C 18.179688 -6.960938 18.5 -8.351562 18.5 -9.9375 C 18.5 -11.519531 18.179688 -12.90625 17.546875 -14.09375 C 16.910156 -15.28125 16.039062 -16.195312 14.9375 -16.84375 C 13.832031 -17.488281 12.582031 -17.8125 11.1875 -17.8125 C 9.78125 -17.8125 8.523438 -17.488281 7.421875 -16.84375 C 6.328125 -16.195312 5.460938 -15.28125 4.828125 -14.09375 C 4.191406 -12.90625 3.875 -11.519531 3.875 -9.9375 C 3.875 -8.351562 4.191406 -6.960938 4.828125 -5.765625 C 5.460938 -4.578125 6.332031 -3.660156 7.4375 -3.015625 C 8.550781 -2.367188 9.800781 -2.046875 11.1875 -2.046875 Z M 11.1875 -2.046875 "/>
            </g>
        </g>
        <g style="fill:#031638;fill-opacity:1;">
            <g transform="translate(323.848697, 318.866698)">
                <path style="stroke:none" d="M 27.109375 -19.828125 L 21.375 0 L 18.46875 0 L 13.859375 -15.96875 L 9.078125 0 L 6.203125 0.03125 L 0.65625 -19.828125 L 3.421875 -19.828125 L 7.734375 -3.015625 L 12.515625 -19.828125 L 15.421875 -19.828125 L 19.96875 -3.078125 L 24.328125 -19.828125 Z M 27.109375 -19.828125 "/>
            </g>
        </g>
    </g>
</svg>