<svg xmlns="http://www.w3.org/2000/svg" xmlns:xlink="http://www.w3.org/1999/xlink" width="500" zoomAndPan="magnify" viewBox="0 0 375 374.999991" height="500" preserveAspectRatio="xMidYMid meet" version="1.2"><g id="6960bc9182"><path style=" stroke:none;fill-rule:evenodd;fill:#013ca4;fill-opacity:1;" d="M 185.023438 66.394531 C 204.476562 55.167969 229.351562 61.832031 240.5625 81.308594 L 321.84375 222.28125 C 333.125 241.757812 326.398438 266.667969 307.019531 277.890625 C 287.566406 289.113281 262.691406 282.449219 251.480469 262.972656 L 170.195312 122 C 158.914062 102.523438 165.570312 77.6875 185.023438 66.394531 Z M 185.023438 66.394531 "/><path style=" stroke:none;fill-rule:evenodd;fill:#0175e4;fill-opacity:1;" d="M 189.648438 277.890625 C 170.195312 289.113281 145.320312 282.449219 134.113281 262.972656 L 52.828125 122 C 41.621094 102.523438 48.273438 77.6875 67.726562 66.394531 C 87.105469 55.167969 111.984375 61.832031 123.191406 81.308594 L 204.546875 222.28125 C 215.757812 241.757812 209.101562 266.667969 189.648438 277.890625 Z M 189.648438 277.890625 "/><path style=" stroke:none;fill-rule:evenodd;fill:#73b7ff;fill-opacity:1;" d="M 302.390625 66.394531 C 321.84375 55.167969 346.722656 61.832031 357.929688 81.308594 C 369.140625 100.785156 362.484375 125.691406 343.03125 136.914062 C 323.578125 148.136719 298.703125 141.476562 287.492188 122 C 276.285156 102.523438 282.9375 77.6875 302.390625 66.394531 Z M 72.28125 277.890625 C 52.828125 289.113281 28.023438 282.449219 16.742188 262.972656 C 5.535156 243.570312 12.1875 218.660156 31.640625 207.4375 C 51.09375 196.144531 75.96875 202.875 87.179688 222.28125 C 98.386719 241.757812 91.734375 266.667969 72.28125 277.890625 Z M 72.28125 277.890625 "/></g></svg>