<svg xmlns="http://www.w3.org/2000/svg" xmlns:xlink="http://www.w3.org/1999/xlink" width="500" zoomAndPan="magnify" viewBox="0 0 375 374.999991" height="500" preserveAspectRatio="xMidYMid meet" version="1.2"><defs/><g id="e5da68872a"><path style=" stroke:none;fill-rule:evenodd;fill:#013ca4;fill-opacity:1;" d="M 186.097656 45.496094 C 199.925781 37.542969 217.613281 42.265625 225.582031 56.066406 L 283.367188 155.953125 C 291.386719 169.753906 286.605469 187.402344 272.828125 195.355469 C 259 203.304688 241.3125 198.585938 233.34375 184.785156 L 175.558594 84.898438 C 167.539062 71.097656 172.269531 53.5 186.097656 45.496094 Z M 186.097656 45.496094 "/><path style=" stroke:none;fill-rule:evenodd;fill:#0175e4;fill-opacity:1;" d="M 189.386719 195.355469 C 175.558594 203.304688 157.875 198.585938 149.90625 184.785156 L 92.117188 84.898438 C 84.148438 71.097656 88.878906 53.5 102.710938 45.496094 C 116.488281 37.542969 134.171875 42.265625 142.140625 56.066406 L 199.980469 155.953125 C 207.945312 169.753906 203.21875 187.402344 189.386719 195.355469 Z M 189.386719 195.355469 "/><path style=" stroke:none;fill-rule:evenodd;fill:#73b7ff;fill-opacity:1;" d="M 269.539062 45.496094 C 283.367188 37.542969 301.050781 42.265625 309.019531 56.066406 C 316.988281 69.863281 312.257812 87.511719 298.429688 95.464844 C 284.601562 103.417969 266.914062 98.699219 258.945312 84.898438 C 250.976562 71.097656 255.707031 53.5 269.539062 45.496094 Z M 105.949219 195.355469 C 92.117188 203.304688 74.484375 198.585938 66.464844 184.785156 C 58.496094 171.035156 63.226562 153.386719 77.054688 145.433594 C 90.886719 137.433594 108.570312 142.203125 116.539062 155.953125 C 124.507812 169.753906 119.777344 187.402344 105.949219 195.355469 Z M 105.949219 195.355469 "/><g style="fill:#ffffff;fill-opacity:1;"><g transform="translate(101.893573, 265.197655)"><path style="stroke:none" d="M 24.1875 -17.875 C 26.207031 -17.445312 27.828125 -16.445312 29.046875 -14.875 C 30.273438 -13.300781 30.890625 -11.503906 30.890625 -9.484375 C 30.890625 -6.566406 29.867188 -4.253906 27.828125 -2.546875 C 25.796875 -0.847656 22.957031 0 19.3125 0 L 3.078125 0 L 3.078125 -34.859375 L 18.765625 -34.859375 C 22.304688 -34.859375 25.078125 -34.046875 27.078125 -32.421875 C 29.085938 -30.804688 30.09375 -28.609375 30.09375 -25.828125 C 30.09375 -23.773438 29.550781 -22.066406 28.46875 -20.703125 C 27.394531 -19.347656 25.96875 -18.40625 24.1875 -17.875 Z M 11.5625 -20.75 L 17.125 -20.75 C 18.519531 -20.75 19.585938 -21.054688 20.328125 -21.671875 C 21.078125 -22.285156 21.453125 -23.1875 21.453125 -24.375 C 21.453125 -25.570312 21.078125 -26.484375 20.328125 -27.109375 C 19.585938 -27.742188 18.519531 -28.0625 17.125 -28.0625 L 11.5625 -28.0625 Z M 17.828125 -6.859375 C 19.253906 -6.859375 20.351562 -7.179688 21.125 -7.828125 C 21.90625 -8.472656 22.296875 -9.40625 22.296875 -10.625 C 22.296875 -11.851562 21.890625 -12.8125 21.078125 -13.5 C 20.265625 -14.195312 19.148438 -14.546875 17.734375 -14.546875 L 11.5625 -14.546875 L 11.5625 -6.859375 Z M 17.828125 -6.859375 "/></g></g><g style="fill:#ffffff;fill-opacity:1;"><g transform="translate(134.606679, 265.197655)"><path style="stroke:none" d="M 11.5625 -34.859375 L 11.5625 0 L 3.078125 0 L 3.078125 -34.859375 Z M 11.5625 -34.859375 "/></g></g><g style="fill:#ffffff;fill-opacity:1;"><g transform="translate(149.250641, 265.197655)"><path style="stroke:none" d="M 11.5625 -6.546875 L 22.6875 -6.546875 L 22.6875 0 L 3.078125 0 L 3.078125 -34.859375 L 11.5625 -34.859375 Z M 11.5625 -6.546875 "/></g></g><g style="fill:#ffffff;fill-opacity:1;"><g transform="translate(172.929175, 265.197655)"><path style="stroke:none" d="M 11.5625 -6.546875 L 22.6875 -6.546875 L 22.6875 0 L 3.078125 0 L 3.078125 -34.859375 L 11.5625 -34.859375 Z M 11.5625 -6.546875 "/></g></g><g style="fill:#ffffff;fill-opacity:1;"><g transform="translate(196.607709, 265.197655)"><path style="stroke:none" d=""/></g></g><g style="fill:#ffffff;fill-opacity:1;"><g transform="translate(207.131501, 265.197655)"><path style="stroke:none" d="M 11.421875 -34.859375 L 11.421875 -14 C 11.421875 -11.914062 11.929688 -10.3125 12.953125 -9.1875 C 13.984375 -8.0625 15.492188 -7.5 17.484375 -7.5 C 19.460938 -7.5 20.984375 -8.0625 22.046875 -9.1875 C 23.109375 -10.3125 23.640625 -11.914062 23.640625 -14 L 23.640625 -34.859375 L 32.125 -34.859375 L 32.125 -14.046875 C 32.125 -10.941406 31.460938 -8.3125 30.140625 -6.15625 C 28.816406 -4.007812 27.035156 -2.390625 24.796875 -1.296875 C 22.566406 -0.203125 20.078125 0.34375 17.328125 0.34375 C 14.578125 0.34375 12.117188 -0.191406 9.953125 -1.265625 C 7.785156 -2.335938 6.070312 -3.957031 4.8125 -6.125 C 3.5625 -8.300781 2.9375 -10.941406 2.9375 -14.046875 L 2.9375 -34.859375 Z M 11.421875 -34.859375 "/></g></g><g style="fill:#ffffff;fill-opacity:1;"><g transform="translate(242.12808, 265.197655)"><path style="stroke:none" d="M 29.640625 -23.640625 C 29.640625 -21.617188 29.175781 -19.769531 28.25 -18.09375 C 27.320312 -16.425781 25.898438 -15.078125 23.984375 -14.046875 C 22.066406 -13.023438 19.679688 -12.515625 16.828125 -12.515625 L 11.5625 -12.515625 L 11.5625 0 L 3.078125 0 L 3.078125 -34.859375 L 16.828125 -34.859375 C 19.609375 -34.859375 21.957031 -34.378906 23.875 -33.421875 C 25.800781 -32.460938 27.242188 -31.132812 28.203125 -29.4375 C 29.160156 -27.75 29.640625 -25.816406 29.640625 -23.640625 Z M 16.1875 -19.265625 C 17.8125 -19.265625 19.019531 -19.644531 19.8125 -20.40625 C 20.601562 -21.164062 21 -22.242188 21 -23.640625 C 21 -25.023438 20.601562 -26.097656 19.8125 -26.859375 C 19.019531 -27.617188 17.8125 -28 16.1875 -28 L 11.5625 -28 L 11.5625 -19.265625 Z M 16.1875 -19.265625 "/></g></g><g style="fill:#ffffff;fill-opacity:1;"><g transform="translate(23.35234, 320.720576)"><path style="stroke:none" d="M 15.453125 -14.03125 C 15.453125 -12.382812 14.890625 -11.015625 13.765625 -9.921875 C 12.640625 -8.828125 10.914062 -8.28125 8.59375 -8.28125 L 4.78125 -8.28125 L 4.78125 0 L 2.1875 0 L 2.1875 -19.84375 L 8.59375 -19.84375 C 10.832031 -19.84375 12.535156 -19.300781 13.703125 -18.21875 C 14.867188 -17.132812 15.453125 -15.738281 15.453125 -14.03125 Z M 8.59375 -10.421875 C 10.039062 -10.421875 11.101562 -10.734375 11.78125 -11.359375 C 12.46875 -11.984375 12.8125 -12.875 12.8125 -14.03125 C 12.8125 -16.476562 11.40625 -17.703125 8.59375 -17.703125 L 4.78125 -17.703125 L 4.78125 -10.421875 Z M 8.59375 -10.421875 "/></g></g><g style="fill:#ffffff;fill-opacity:1;"><g transform="translate(50.844102, 320.720576)"><path style="stroke:none" d="M 4.78125 -2.109375 L 11.734375 -2.109375 L 11.734375 0 L 2.1875 0 L 2.1875 -19.84375 L 4.78125 -19.84375 Z M 4.78125 -2.109375 "/></g></g><g style="fill:#ffffff;fill-opacity:1;"><g transform="translate(74.153266, 320.720576)"><path style="stroke:none" d="M 13.921875 -4.40625 L 5.265625 -4.40625 L 3.671875 0 L 0.9375 0 L 8.109375 -19.734375 L 11.109375 -19.734375 L 18.25 0 L 15.515625 0 Z M 13.1875 -6.515625 L 9.59375 -16.546875 L 6 -6.515625 Z M 13.1875 -6.515625 "/></g></g><g style="fill:#ffffff;fill-opacity:1;"><g transform="translate(104.348065, 320.720576)"><path style="stroke:none" d="M 16.078125 -19.84375 L 9.625 -7.484375 L 9.625 0 L 7.03125 0 L 7.03125 -7.484375 L 0.546875 -19.84375 L 3.421875 -19.84375 L 8.3125 -9.796875 L 13.203125 -19.84375 Z M 16.078125 -19.84375 "/></g></g><g style="fill:#ffffff;fill-opacity:1;"><g transform="translate(131.982089, 320.720576)"><path style="stroke:none" d=""/></g></g><g style="fill:#ffffff;fill-opacity:1;"><g transform="translate(150.596498, 320.720576)"><path style="stroke:none" d="M 14.40625 -19.84375 L 14.40625 -17.734375 L 9 -17.734375 L 9 0 L 6.40625 0 L 6.40625 -17.734375 L 0.96875 -17.734375 L 0.96875 -19.84375 Z M 14.40625 -19.84375 "/></g></g><g style="fill:#ffffff;fill-opacity:1;"><g transform="translate(177.007046, 320.720576)"><path style="stroke:none" d="M 11.1875 0.203125 C 9.34375 0.203125 7.660156 -0.226562 6.140625 -1.09375 C 4.628906 -1.957031 3.429688 -3.160156 2.546875 -4.703125 C 1.660156 -6.253906 1.21875 -8 1.21875 -9.9375 C 1.21875 -11.875 1.660156 -13.613281 2.546875 -15.15625 C 3.429688 -16.707031 4.628906 -17.914062 6.140625 -18.78125 C 7.660156 -19.644531 9.34375 -20.078125 11.1875 -20.078125 C 13.050781 -20.078125 14.738281 -19.644531 16.25 -18.78125 C 17.769531 -17.914062 18.96875 -16.710938 19.84375 -15.171875 C 20.71875 -13.640625 21.15625 -11.894531 21.15625 -9.9375 C 21.15625 -7.976562 20.71875 -6.226562 19.84375 -4.6875 C 18.96875 -3.15625 17.769531 -1.957031 16.25 -1.09375 C 14.738281 -0.226562 13.050781 0.203125 11.1875 0.203125 Z M 11.1875 -2.046875 C 12.570312 -2.046875 13.816406 -2.367188 14.921875 -3.015625 C 16.035156 -3.660156 16.910156 -4.582031 17.546875 -5.78125 C 18.179688 -6.976562 18.5 -8.363281 18.5 -9.9375 C 18.5 -11.53125 18.179688 -12.921875 17.546875 -14.109375 C 16.910156 -15.296875 16.039062 -16.210938 14.9375 -16.859375 C 13.84375 -17.503906 12.59375 -17.828125 11.1875 -17.828125 C 9.78125 -17.828125 8.523438 -17.503906 7.421875 -16.859375 C 6.328125 -16.210938 5.460938 -15.296875 4.828125 -14.109375 C 4.191406 -12.921875 3.875 -11.53125 3.875 -9.9375 C 3.875 -8.363281 4.191406 -6.976562 4.828125 -5.78125 C 5.460938 -4.582031 6.332031 -3.660156 7.4375 -3.015625 C 8.550781 -2.367188 9.800781 -2.046875 11.1875 -2.046875 Z M 11.1875 -2.046875 "/></g></g><g style="fill:#ffffff;fill-opacity:1;"><g transform="translate(210.38859, 320.720576)"><path style="stroke:none" d=""/></g></g><g style="fill:#ffffff;fill-opacity:1;"><g transform="translate(229.002999, 320.720576)"><path style="stroke:none" d="M 17.21875 -14.09375 C 16.664062 -15.25 15.867188 -16.144531 14.828125 -16.78125 C 13.785156 -17.414062 12.570312 -17.734375 11.1875 -17.734375 C 9.800781 -17.734375 8.550781 -17.414062 7.4375 -16.78125 C 6.332031 -16.144531 5.460938 -15.234375 4.828125 -14.046875 C 4.191406 -12.859375 3.875 -11.488281 3.875 -9.9375 C 3.875 -8.375 4.191406 -7.003906 4.828125 -5.828125 C 5.460938 -4.660156 6.332031 -3.753906 7.4375 -3.109375 C 8.550781 -2.472656 9.800781 -2.15625 11.1875 -2.15625 C 13.125 -2.15625 14.71875 -2.734375 15.96875 -3.890625 C 17.21875 -5.054688 17.945312 -6.625 18.15625 -8.59375 L 10.25 -8.59375 L 10.25 -10.703125 L 20.921875 -10.703125 L 20.921875 -8.71875 C 20.773438 -7.082031 20.265625 -5.582031 19.390625 -4.21875 C 18.515625 -2.863281 17.363281 -1.789062 15.9375 -1 C 14.519531 -0.21875 12.9375 0.171875 11.1875 0.171875 C 9.34375 0.171875 7.660156 -0.257812 6.140625 -1.125 C 4.628906 -1.988281 3.429688 -3.1875 2.546875 -4.71875 C 1.660156 -6.257812 1.21875 -8 1.21875 -9.9375 C 1.21875 -11.875 1.660156 -13.613281 2.546875 -15.15625 C 3.429688 -16.707031 4.628906 -17.914062 6.140625 -18.78125 C 7.660156 -19.644531 9.34375 -20.078125 11.1875 -20.078125 C 13.289062 -20.078125 15.15625 -19.550781 16.78125 -18.5 C 18.40625 -17.457031 19.585938 -15.988281 20.328125 -14.09375 Z M 17.21875 -14.09375 "/></g></g><g style="fill:#ffffff;fill-opacity:1;"><g transform="translate(262.15692, 320.720576)"><path style="stroke:none" d="M 12.640625 0 L 7.921875 -8.109375 L 4.78125 -8.109375 L 4.78125 0 L 2.1875 0 L 2.1875 -19.84375 L 8.59375 -19.84375 C 10.09375 -19.84375 11.359375 -19.585938 12.390625 -19.078125 C 13.429688 -18.566406 14.207031 -17.875 14.71875 -17 C 15.226562 -16.125 15.484375 -15.125 15.484375 -14 C 15.484375 -12.632812 15.085938 -11.429688 14.296875 -10.390625 C 13.515625 -9.347656 12.335938 -8.65625 10.765625 -8.3125 L 15.75 0 Z M 4.78125 -10.1875 L 8.59375 -10.1875 C 10 -10.1875 11.050781 -10.53125 11.75 -11.21875 C 12.457031 -11.914062 12.8125 -12.84375 12.8125 -14 C 12.8125 -15.175781 12.460938 -16.085938 11.765625 -16.734375 C 11.078125 -17.378906 10.019531 -17.703125 8.59375 -17.703125 L 4.78125 -17.703125 Z M 4.78125 -10.1875 "/></g></g><g style="fill:#ffffff;fill-opacity:1;"><g transform="translate(290.473812, 320.720576)"><path style="stroke:none" d="M 11.1875 0.203125 C 9.34375 0.203125 7.660156 -0.226562 6.140625 -1.09375 C 4.628906 -1.957031 3.429688 -3.160156 2.546875 -4.703125 C 1.660156 -6.253906 1.21875 -8 1.21875 -9.9375 C 1.21875 -11.875 1.660156 -13.613281 2.546875 -15.15625 C 3.429688 -16.707031 4.628906 -17.914062 6.140625 -18.78125 C 7.660156 -19.644531 9.34375 -20.078125 11.1875 -20.078125 C 13.050781 -20.078125 14.738281 -19.644531 16.25 -18.78125 C 17.769531 -17.914062 18.96875 -16.710938 19.84375 -15.171875 C 20.71875 -13.640625 21.15625 -11.894531 21.15625 -9.9375 C 21.15625 -7.976562 20.71875 -6.226562 19.84375 -4.6875 C 18.96875 -3.15625 17.769531 -1.957031 16.25 -1.09375 C 14.738281 -0.226562 13.050781 0.203125 11.1875 0.203125 Z M 11.1875 -2.046875 C 12.570312 -2.046875 13.816406 -2.367188 14.921875 -3.015625 C 16.035156 -3.660156 16.910156 -4.582031 17.546875 -5.78125 C 18.179688 -6.976562 18.5 -8.363281 18.5 -9.9375 C 18.5 -11.53125 18.179688 -12.921875 17.546875 -14.109375 C 16.910156 -15.296875 16.039062 -16.210938 14.9375 -16.859375 C 13.84375 -17.503906 12.59375 -17.828125 11.1875 -17.828125 C 9.78125 -17.828125 8.523438 -17.503906 7.421875 -16.859375 C 6.328125 -16.210938 5.460938 -15.296875 4.828125 -14.109375 C 4.191406 -12.921875 3.875 -11.53125 3.875 -9.9375 C 3.875 -8.363281 4.191406 -6.976562 4.828125 -5.78125 C 5.460938 -4.582031 6.332031 -3.660156 7.4375 -3.015625 C 8.550781 -2.367188 9.800781 -2.046875 11.1875 -2.046875 Z M 11.1875 -2.046875 "/></g></g><g style="fill:#ffffff;fill-opacity:1;"><g transform="translate(323.855356, 320.720576)"><path style="stroke:none" d="M 27.125 -19.84375 L 21.375 0 L 18.46875 0 L 13.859375 -15.96875 L 9.078125 0 L 6.203125 0.03125 L 0.65625 -19.84375 L 3.421875 -19.84375 L 7.75 -3.015625 L 12.53125 -19.84375 L 15.4375 -19.84375 L 19.984375 -3.078125 L 24.34375 -19.84375 Z M 27.125 -19.84375 "/></g></g></g></svg>