                                            <svg xmlns="http://www.w3.org/2000/svg" width="24" height="24"
                                                viewBox="0 0 24 24" fill="none" stroke="currentColor" stroke-width="2"
                                                stroke-linecap="round" stroke-linejoin="round"
                                                class="lucide lucide-trophy h-4 w-4">
                                                <path d="M6 9H4.5a2.5 2.5 0 0 1 0-5H6" />
                                                <path d="M18 9h1.5a2.5 2.5 0 0 0 0-5H18" />
                                                <path d="M4 22h16" />
                                                <path d="M10 11V7m4 4V7" />
                                                <path d="M12 17v5" />
                                                <path
                                                    d="M12 17H8c-1.33 0-2-.67-2-2V9a2 2 0 0 1 2-2h8a2 2 0 0 1 2 2v6c0 1.33-.67 2-2 2h-4Z" />
                                            </svg>